<?xml version="1.0" standalone="no"?>
<!DOCTYPE svg PUBLIC "-//W3C//DTD SVG 20010904//EN"
 "http://www.w3.org/TR/2001/REC-SVG-20010904/DTD/svg10.dtd">
<svg version="1.0" xmlns="http://www.w3.org/2000/svg"
 width="120.000000pt" height="120.000000pt" viewBox="0 0 120.000000 120.000000"
 preserveAspectRatio="xMidYMid meet">
<metadata>
Created by potrace 1.14, written by Peter Selinger 2001-2017
</metadata>
<g transform="translate(0.000000,120.000000) scale(0.100000,-0.100000)"
fill="#000000" stroke="none">
<path d="M506 869 c-175 -176 -316 -322 -314 -324 3 -3 93 -5 202 -5 l196 -1
-11 -21 c-7 -12 -16 -27 -21 -32 -14 -17 -271 -403 -291 -438 -10 -17 -17 -32
-15 -33 2 -2 28 20 59 48 30 29 100 93 154 142 54 50 116 107 138 127 22 20
71 65 110 100 68 62 131 119 252 232 l60 56 -50 1 c-27 0 -119 0 -202 0 -149
1 -176 6 -155 32 5 7 49 89 97 182 49 94 97 186 107 205 19 37 22 51 11 49 -5
0 -151 -145 -327 -320z"/>
</g>
</svg>
